<?xml version="1.0" standalone="no"?>
<!DOCTYPE svg PUBLIC "-//W3C//DTD SVG 20010904//EN"
 "http://www.w3.org/TR/2001/REC-SVG-20010904/DTD/svg10.dtd">
<svg version="1.0" xmlns="http://www.w3.org/2000/svg"
 width="964.000000pt" height="467.000000pt" viewBox="0 0 964.000000 467.000000"
 preserveAspectRatio="xMidYMid meet">

<g transform="translate(0.000000,467.000000) scale(0.100000,-0.100000)"
fill="#000000" stroke="none">
<path d="M4761 2459 c-164 -32 -313 -177 -350 -340 -13 -56 -13 -162 0 -218
18 -79 61 -154 123 -217 74 -73 146 -110 247 -125 202 -32 391 66 481 248 32
66 33 70 33 198 0 126 -1 132 -32 198 -92 194 -294 297 -502 256z m209 -173
c59 -30 128 -105 150 -164 55 -147 -11 -322 -147 -387 -54 -27 -150 -31 -212
-10 -68 22 -142 90 -172 157 -32 73 -32 183 -1 253 36 79 104 141 182 166 41
14 161 4 200 -15z"/>
<path d="M6378 2458 c-46 -12 -120 -76 -142 -122 -9 -19 -16 -57 -16 -85 0
-80 34 -135 146 -237 191 -175 194 -178 194 -217 0 -48 -45 -87 -100 -87 -42
0 -98 39 -129 91 l-17 27 -64 -39 c-36 -21 -66 -43 -68 -47 -5 -17 63 -107
105 -138 100 -76 280 -65 367 22 44 44 66 100 66 172 0 109 -21 138 -258 350
-67 60 -82 79 -82 102 0 81 127 76 187 -6 l19 -25 58 53 c69 63 68 73 -14 133
-81 59 -163 77 -252 53z"/>
<path d="M3190 2009 l0 -441 178 4 c198 4 238 15 299 79 96 102 86 283 -19
359 -22 16 -45 31 -51 33 -7 3 0 17 20 38 40 43 53 77 53 140 0 162 -109 229
-377 229 l-103 0 0 -441z m279 266 c32 -16 51 -59 44 -98 -8 -43 -46 -70 -108
-75 l-55 -4 0 96 0 96 45 0 c26 0 59 -7 74 -15z m41 -347 c36 -18 48 -32 59
-64 28 -82 -30 -134 -151 -134 l-68 0 0 110 0 110 58 0 c40 0 71 -7 102 -22z"/>
<path d="M3900 2010 l0 -440 205 0 205 0 0 80 0 80 -125 0 -125 0 0 360 0 360
-80 0 -80 0 0 -440z"/>
<path d="M5462 2098 c3 -394 3 -393 76 -466 56 -55 113 -76 212 -77 73 0 93 4
142 28 62 30 113 85 134 145 10 28 13 123 14 380 l0 342 -80 0 -79 0 -3 -335
-3 -335 -32 -31 c-26 -26 -41 -33 -86 -37 -52 -4 -57 -2 -93 31 l-39 35 -3
336 -3 336 -80 0 -80 0 3 -352z"/>
<path d="M6880 2010 l0 -440 240 0 240 0 0 80 0 80 -160 0 -160 0 0 120 0 120
160 0 160 0 0 80 0 80 -160 0 -160 0 0 80 0 80 160 0 160 0 0 80 0 80 -240 0
-240 0 0 -440z"/>
</g>
</svg>
